<?xml version="1.0" encoding="utf-8"?>
<!-- Generator: Adobe Illustrator 25.4.0, SVG Export Plug-In . SVG Version: 6.00 Build 0)  -->
<svg version="1.1" id="Livello_1" xmlns="http://www.w3.org/2000/svg" xmlns:xlink="http://www.w3.org/1999/xlink" x="0px" y="0px"
	 viewBox="0 0 308.19 46.7" style="enable-background:new 0 0 308.19 46.7;" xml:space="preserve">
<style type="text/css">
	.st0{fill:#003049;}
</style>
<path class="st0" d="M6.41,38.66c15.03-0.63,30.06-1.21,45.09-1.95c3.69-0.18,4.09-1.09,3.55-5.92
	c-11.34-0.52-22.72-1.04-34.11-1.55c-0.02-0.12-0.03-0.25-0.05-0.37c11.4-1.15,22.81-2.3,34.62-3.5c0-5.95,0.11-12.59-0.05-19.23
	c-0.08-3.19,0.97-4.62,4.29-4.4c6.25,0.42,12.71-0.2,18.71,1.19c8.8,2.05,12.68,8.37,12.87,17.38c0.14,6.58,0.09,13.29-5.31,17.78
	c-3.49,2.9-8,5.27-12.41,6.19c-5.11,1.06-10.79,1.15-15.9,0.09c-16.16-3.36-32.54-2.75-48.83-3.8c-0.83-0.05-1.66,0.06-2.49,0.1
	C6.41,40,6.41,39.33,6.41,38.66z M63.31,37.77c2.32,0,3.82,0,5.31,0c10.18-0.01,15.28-5.79,14.89-16.9
	C83.24,12.9,75.86,6.71,67.36,7.7c-1.45,0.17-3.82,2.04-3.86,3.2C63.17,19.68,63.31,28.46,63.31,37.77z"/>
<path class="st0" d="M212.25,44.26c0-14.84,0-29.37,0-44.19c2.9,0,5.14,0,7.82,0c0,4.57,0,9.17,0,13.81c3.4-0.4,6.37-1,9.35-1.06
	c7.26-0.14,12.75,5.29,12.86,12.52c0.04,2.82,0.45,5.78-0.22,8.45c-1.65,6.6-6.29,11.23-13.69,10.83c-4.58-0.25-9.17-1.63-13.8-0.13
	C213.75,44.77,212.69,44.31,212.25,44.26z M234.4,29.14c0.41-0.22,0.82-0.43,1.24-0.65c-1.81-2.87-3.08-6.51-5.64-8.34
	c-1.54-1.1-5.49-0.06-7.63,1.23c-3.04,1.83-3.23,12.36-0.25,14.38c2.03,1.38,5.47,2.36,7.56,1.58
	C232.77,36.19,235.49,33.45,234.4,29.14z"/>
<path class="st0" d="M118.85,36.81c0.48,2.03,0.88,3.71,1.27,5.34c-10.01,5.72-21.76,3.03-25.69-5.76
	c-3.24-7.26,0.03-18.41,6.59-22.46c8.19-5.05,19.66,0.8,20.25,10.36c0.13,2.15,0.02,4.32,0.02,7.02c-6.56,0-12.97,0-19.35,0
	C101.71,37.86,107.29,39.57,118.85,36.81z M101.28,25.53c4.39,0,8.16,0,11.9,0c1.21-4.49-1.81-6.42-4.82-6.71
	C104.53,18.45,102.34,21.36,101.28,25.53z"/>
<path class="st0" d="M207.79,31.63c-6.53,0-12.82,0-19.14,0c0.59,6.32,4.7,7.54,17.01,5.38c1.76,6.42,1.19,7.56-5.22,7.43
	c-4.67-0.09-9.65-0.38-13.88-2.08c-5.62-2.26-7.8-10.96-5.73-18.43c1.95-6.99,6.86-10.68,13.14-11.25
	C204.7,11.7,210.07,19.91,207.79,31.63z M200.14,25.54c1.29-4.48-1.76-6.46-4.73-6.71c-3.96-0.33-6.32,2.48-6.86,6.71
	C192.61,25.54,196.39,25.54,200.14,25.54z"/>
<path class="st0" d="M259.4,44.56c-8.47,1.45-15.7-6.8-15.04-16.32c0.69-9.88,5.77-15.47,15.77-15.46
	c9.01,0.01,15.39,6.04,15.03,15.25C274.84,36.71,271.1,45.15,259.4,44.56z M252.3,28.82c0.03,4.96,4.37,10.48,7.75,9.65
	c4.58-1.13,7.21-4.63,6.85-8.94c-0.29-3.37-1.79-7.71-4.28-9.59C257.9,16.39,252.26,21.49,252.3,28.82z"/>
<path class="st0" d="M292.16,44.56c-8.02,1.46-15.43-6.76-14.8-16.06c0.68-10.06,5.65-15.72,15.51-15.72
	c9.33,0,15.88,6.25,15.31,15.48C307.65,37.19,303.76,45.25,292.16,44.56z M285.3,28.84c0.03,4.96,4.38,10.46,7.77,9.63
	c4.6-1.13,7.2-4.66,6.84-8.95c-0.28-3.37-1.8-7.7-4.3-9.58C290.88,16.39,285.26,21.51,285.3,28.84z"/>
<path class="st0" d="M165.19,33.53c1.98-5.5,3.67-10.01,5.23-14.56c2.3-6.73,2.26-6.74,10.13-5.72
	c-3.94,10.39-7.84,20.68-11.71,30.88c-5.23,1.76-8.14-0.05-9.82-5.35c-2.74-8.64-6.08-17.09-9.21-25.73
	c8.16-0.6,8.14-0.59,10.56,6.65C161.79,23.95,163.32,28.18,165.19,33.53z"/>
<path class="st0" d="M125.86,0c2.42,0,4.66,0,7.17,0c0,14.78,0,29.34,0,44.23c-2.33,0-4.57,0-7.17,0
	C125.86,29.62,125.86,14.92,125.86,0z"/>
<path class="st0" d="M139.83,13.03c2.51,0,4.75,0,7.23,0c0,10.49,0,20.72,0,31.24c-2.42,0-4.67,0-7.23,0
	C139.83,34.01,139.83,23.77,139.83,13.03z"/>
<path class="st0" d="M142.44,1.02c4.02,0.37,5.61,2.08,4.69,4.8c-0.63,1.85-2.8,3.17-4.28,4.73c-1.44-1.65-3.73-3.16-4.02-4.99
	C138.63,4.27,141.14,2.55,142.44,1.02z"/>
<path class="st0" d="M54.04,18.31c-0.97,0.08-1.93,0.23-2.9,0.23c-6.09,0.02-12.19,0.01-18.29-0.63c7.08-0.54,14.17-1.09,21.25-1.63
	C54.08,16.96,54.06,17.64,54.04,18.31z"/>
</svg>
